<svg width="24" height="24" viewBox="0 0 24 24" fill="none" xmlns="http://www.w3.org/2000/svg">
<path fill-rule="evenodd" clip-rule="evenodd" d="M6.32759 8.34749L6.93059 15.5195C6.97459 16.0715 7.42559 16.4855 7.97659 16.4855H7.98059H18.8916H18.8936C19.4146 16.4855 19.8596 16.0975 19.9336 15.5825L20.8836 9.02349C20.9056 8.86749 20.8666 8.71149 20.7716 8.58549C20.6776 8.45849 20.5396 8.37649 20.3836 8.35449C20.1746 8.36249 11.5016 8.35049 6.32759 8.34749ZM7.97459 17.9855C6.65759 17.9855 5.54259 16.9575 5.43559 15.6425L4.51959 4.74849L3.01259 4.48849C2.60359 4.41649 2.33059 4.02949 2.40059 3.62049C2.47259 3.21149 2.86759 2.94549 3.26759 3.00949L5.34759 3.36949C5.68259 3.42849 5.93759 3.70649 5.96659 4.04649L6.20159 6.84749C20.4776 6.85349 20.5236 6.86049 20.5926 6.86849C21.1496 6.94949 21.6396 7.24049 21.9736 7.68849C22.3076 8.13549 22.4476 8.68649 22.3676 9.23849L21.4186 15.7965C21.2396 17.0445 20.1556 17.9855 18.8956 17.9855H18.8906H7.98259H7.97459Z" fill="white"/>
<path fill-rule="evenodd" clip-rule="evenodd" d="M17.2876 12.0439H14.5156C14.1006 12.0439 13.7656 11.7079 13.7656 11.2939C13.7656 10.8799 14.1006 10.5439 14.5156 10.5439H17.2876C17.7016 10.5439 18.0376 10.8799 18.0376 11.2939C18.0376 11.7079 17.7016 12.0439 17.2876 12.0439Z" fill="white"/>
<path fill-rule="evenodd" clip-rule="evenodd" d="M7.54402 20.7021C7.84502 20.7021 8.08802 20.9451 8.08802 21.2461C8.08802 21.5471 7.84502 21.7911 7.54402 21.7911C7.24202 21.7911 6.99902 21.5471 6.99902 21.2461C6.99902 20.9451 7.24202 20.7021 7.54402 20.7021Z" fill="white"/>
<mask id="mask0_3253_23396" style="mask-type:alpha" maskUnits="userSpaceOnUse" x="6" y="20" width="3" height="2">
<path fill-rule="evenodd" clip-rule="evenodd" d="M6.99902 21.2452C6.99902 21.5472 7.24202 21.7912 7.54502 21.7912C7.84602 21.7912 8.08902 21.5472 8.08902 21.2452C8.08902 20.9442 7.84602 20.7012 7.54502 20.7012C7.24202 20.7012 6.99902 20.9442 6.99902 21.2452Z" fill="white"/>
</mask>
<g mask="url(#mask0_3253_23396)">
<path fill-rule="evenodd" clip-rule="evenodd" d="M2 26.7902H13.089V15.7012H2V26.7902Z" fill="white"/>
</g>
<path fill-rule="evenodd" clip-rule="evenodd" d="M7.54302 21.0411C7.43002 21.0411 7.33802 21.1331 7.33802 21.2461C7.33802 21.4731 7.74902 21.4731 7.74902 21.2461C7.74902 21.1331 7.65602 21.0411 7.54302 21.0411ZM7.54302 22.5411C6.82902 22.5411 6.24902 21.9601 6.24902 21.2461C6.24902 20.5321 6.82902 19.9521 7.54302 19.9521C8.25702 19.9521 8.83802 20.5321 8.83802 21.2461C8.83802 21.9601 8.25702 22.5411 7.54302 22.5411Z" fill="white"/>
<path fill-rule="evenodd" clip-rule="evenodd" d="M18.8243 20.7021C19.1253 20.7021 19.3693 20.9451 19.3693 21.2461C19.3693 21.5471 19.1253 21.7911 18.8243 21.7911C18.5223 21.7911 18.2793 21.5471 18.2793 21.2461C18.2793 20.9451 18.5223 20.7021 18.8243 20.7021Z" fill="white"/>
<mask id="mask1_3253_23396" style="mask-type:alpha" maskUnits="userSpaceOnUse" x="18" y="20" width="2" height="2">
<path fill-rule="evenodd" clip-rule="evenodd" d="M18.2803 21.2452C18.2803 21.5472 18.5233 21.7912 18.8253 21.7912C19.1253 21.7912 19.3703 21.5472 19.3703 21.2452C19.3703 20.9442 19.1253 20.7012 18.8253 20.7012C18.5233 20.7012 18.2803 20.9442 18.2803 21.2452Z" fill="white"/>
</mask>
<g mask="url(#mask1_3253_23396)">
<path fill-rule="evenodd" clip-rule="evenodd" d="M13.2803 26.7902H24.3703V15.7012H13.2803V26.7902Z" fill="white"/>
</g>
<path fill-rule="evenodd" clip-rule="evenodd" d="M18.8233 21.0411C18.7113 21.0411 18.6193 21.1331 18.6193 21.2461C18.6203 21.4751 19.0303 21.4731 19.0293 21.2461C19.0293 21.1331 18.9363 21.0411 18.8233 21.0411ZM18.8233 22.5411C18.1093 22.5411 17.5293 21.9601 17.5293 21.2461C17.5293 20.5321 18.1093 19.9521 18.8233 19.9521C19.5383 19.9521 20.1193 20.5321 20.1193 21.2461C20.1193 21.9601 19.5383 22.5411 18.8233 22.5411Z" fill="white"/>
</svg>
