<svg width="24" height="24" viewBox="0 0 24 24" fill="none" xmlns="http://www.w3.org/2000/svg">
<path d="M3.69136 6C3.50774 6 3.33164 6.07024 3.2018 6.19526C3.07197 6.32029 2.99902 6.48986 2.99902 6.66667C2.99902 6.84348 3.07197 7.01305 3.2018 7.13807C3.33164 7.2631 3.50774 7.33333 3.69136 7.33333H20.3075C20.4911 7.33333 20.6672 7.2631 20.797 7.13807C20.9269 7.01305 20.9998 6.84348 20.9998 6.66667C20.9998 6.48986 20.9269 6.32029 20.797 6.19526C20.6672 6.07024 20.4911 6 20.3075 6H3.69136ZM2.99902 12C2.99902 11.8232 3.07197 11.6536 3.2018 11.5286C3.33164 11.4036 3.50774 11.3333 3.69136 11.3333H20.3075C20.4911 11.3333 20.6672 11.4036 20.797 11.5286C20.9269 11.6536 20.9998 11.8232 20.9998 12C20.9998 12.1768 20.9269 12.3464 20.797 12.4714C20.6672 12.5964 20.4911 12.6667 20.3075 12.6667H3.69136C3.50774 12.6667 3.33164 12.5964 3.2018 12.4714C3.07197 12.3464 2.99902 12.1768 2.99902 12ZM2.99902 17.3333C2.99902 17.1565 3.07197 16.987 3.2018 16.8619C3.33164 16.7369 3.50774 16.6667 3.69136 16.6667H20.3075C20.4911 16.6667 20.6672 16.7369 20.797 16.8619C20.9269 16.987 20.9998 17.1565 20.9998 17.3333C20.9998 17.5101 20.9269 17.6797 20.797 17.8047C20.6672 17.9298 20.4911 18 20.3075 18H3.69136C3.50774 18 3.33164 17.9298 3.2018 17.8047C3.07197 17.6797 2.99902 17.5101 2.99902 17.3333Z" fill="#112950"/>
<path d="M3.69136 6C3.50774 6 3.33164 6.07024 3.2018 6.19526C3.07197 6.32029 2.99902 6.48986 2.99902 6.66667C2.99902 6.84348 3.07197 7.01305 3.2018 7.13807C3.33164 7.2631 3.50774 7.33333 3.69136 7.33333H20.3075C20.4911 7.33333 20.6672 7.2631 20.797 7.13807C20.9269 7.01305 20.9998 6.84348 20.9998 6.66667C20.9998 6.48986 20.9269 6.32029 20.797 6.19526C20.6672 6.07024 20.4911 6 20.3075 6H3.69136ZM2.99902 12C2.99902 11.8232 3.07197 11.6536 3.2018 11.5286C3.33164 11.4036 3.50774 11.3333 3.69136 11.3333H20.3075C20.4911 11.3333 20.6672 11.4036 20.797 11.5286C20.9269 11.6536 20.9998 11.8232 20.9998 12C20.9998 12.1768 20.9269 12.3464 20.797 12.4714C20.6672 12.5964 20.4911 12.6667 20.3075 12.6667H3.69136C3.50774 12.6667 3.33164 12.5964 3.2018 12.4714C3.07197 12.3464 2.99902 12.1768 2.99902 12ZM2.99902 17.3333C2.99902 17.1565 3.07197 16.987 3.2018 16.8619C3.33164 16.7369 3.50774 16.6667 3.69136 16.6667H20.3075C20.4911 16.6667 20.6672 16.7369 20.797 16.8619C20.9269 16.987 20.9998 17.1565 20.9998 17.3333C20.9998 17.5101 20.9269 17.6797 20.797 17.8047C20.6672 17.9298 20.4911 18 20.3075 18H3.69136C3.50774 18 3.33164 17.9298 3.2018 17.8047C3.07197 17.6797 2.99902 17.5101 2.99902 17.3333Z" stroke="#112950"/>
</svg>
