<svg width="20" height="20" viewBox="0 0 20 20" fill="none" xmlns="http://www.w3.org/2000/svg">
<path fill-rule="evenodd" clip-rule="evenodd" d="M10.2083 7.08398C9.40417 7.08398 8.75 7.73815 8.75 8.54315C8.75 9.34732 9.40417 10.0007 10.2083 10.0007C11.0125 10.0007 11.6667 9.34732 11.6667 8.54315C11.6667 7.73815 11.0125 7.08398 10.2083 7.08398ZM10.2083 11.2507C8.715 11.2507 7.5 10.0365 7.5 8.54315C7.5 7.04898 8.715 5.83398 10.2083 5.83398C11.7017 5.83398 12.9167 7.04898 12.9167 8.54315C12.9167 10.0365 11.7017 11.2507 10.2083 11.2507Z" fill="white"/>
<mask id="mask0_3253_23380" style="mask-type:alpha" maskUnits="userSpaceOnUse" x="3" y="1" width="15" height="17">
<path fill-rule="evenodd" clip-rule="evenodd" d="M3.33301 1.66699H17.0826V17.917H3.33301V1.66699Z" fill="white"/>
</mask>
<g mask="url(#mask0_3253_23380)">
<path fill-rule="evenodd" clip-rule="evenodd" d="M10.208 2.91699C7.10634 2.91699 4.58301 5.46449 4.58301 8.59449C4.58301 12.577 9.26967 16.457 10.208 16.6637C11.1463 16.4562 15.833 12.5762 15.833 8.59449C15.833 5.46449 13.3097 2.91699 10.208 2.91699ZM10.208 17.917C8.71301 17.917 3.33301 13.2903 3.33301 8.59449C3.33301 4.77449 6.41717 1.66699 10.208 1.66699C13.9988 1.66699 17.083 4.77449 17.083 8.59449C17.083 13.2903 11.703 17.917 10.208 17.917Z" fill="white"/>
</g>
</svg>
