<svg width="18" height="18" viewBox="0 0 18 18" fill="none" xmlns="http://www.w3.org/2000/svg">
<path d="M17.1299 16.1724L14.2655 13.3718L14.1983 13.2697C14.0735 13.1455 13.9028 13.0755 13.7246 13.0755C13.5465 13.0755 13.3758 13.1455 13.2509 13.2697C10.8166 15.5031 7.06545 15.6245 4.48533 13.5534C1.90521 11.4823 1.29672 7.86146 3.0634 5.09213C4.83008 2.3228 8.42372 1.26436 11.461 2.61877C14.4983 3.97318 16.0368 7.32015 15.0562 10.44C14.9855 10.6654 15.0433 10.9105 15.2076 11.083C15.3719 11.2555 15.6179 11.3291 15.8529 11.2762C16.0878 11.2233 16.2761 11.0519 16.3467 10.8265C17.519 7.1242 15.7484 3.13995 12.1804 1.45121C8.6124 -0.23754 4.31769 0.876012 2.07454 4.07151C-0.168616 7.267 0.312975 11.5854 3.20777 14.2332C6.10256 16.881 10.5418 17.0636 13.6538 14.6627L16.19 17.1424C16.452 17.3974 16.8755 17.3974 17.1374 17.1424C17.3991 16.8838 17.3991 16.4675 17.1374 16.2089L17.1299 16.1724Z" fill="#112950"/>
</svg>
